<svg xmlns="http://www.w3.org/2000/svg" viewBox="0 0 456.79 48.03"><defs><style>.cls-1{fill:#00ef8b;}.cls-2{fill:#1b1b1b;}</style></defs><title>Kryptonum-logo-black</title><g id="Layer_2" data-name="Layer 2"><g id="Layer_1-2" data-name="Layer 1"><path class="cls-1" d="M288.46,3.87h0A4,4,0,0,0,286.09.74a7.67,7.67,0,0,0-4.57-.31A33,33,0,0,0,275,2.58l-.64.28.57.42c.48.35,1,.76,1.46,1.14l.19.15A31.89,31.89,0,0,1,282,2.64a5.15,5.15,0,0,1,3.05.18,2.08,2.08,0,0,1,1.12,1.67,6,6,0,0,1-.6,2.89,27.94,27.94,0,0,1-2.84,5.19c-.74,1.13-1.54,2.24-2.33,3.29A24,24,0,0,0,257.79,0h0a24,24,0,0,0-17,41,24.35,24.35,0,0,0,3.3,2.74c-.72.23-1.43.44-2.12.61a22,22,0,0,1-6.68.75c-3-.2-4.79-1.21-5.3-2.94s.39-4.57,2.62-7.66l.14-.2-.11-.21c-.26-.55-.52-1.17-.75-1.74l-.28-.63-.44.56c-3.16,4.09-4.38,7.75-3.54,10.58s3.48,4.44,7.49,4.72c.37,0,.74,0,1.12,0a28.8,28.8,0,0,0,8.16-1.37c.8-.24,1.63-.53,2.47-.84A23.79,23.79,0,0,0,257.79,48h0a24,24,0,0,0,23.36-29.46c1-1.23,2-2.52,2.85-3.77a38.21,38.21,0,0,0,3.83-6.55A9.09,9.09,0,0,0,288.46,3.87Zm-9.92,14.29c-.52.64-1,1.21-1.43,1.69A124,124,0,0,1,264.4,32.08,67.53,67.53,0,0,1,249,41.85c-.67.3-1.32.57-2,.83A21.55,21.55,0,0,1,257.81,2.45h0A21.6,21.6,0,0,1,278.54,18.16ZM251.19,43.57A71.43,71.43,0,0,0,266,34a168.28,168.28,0,0,0,12.74-12.51l.42-.47a21.53,21.53,0,0,1-21.32,24.59h0A21.39,21.39,0,0,1,250,44.1C250.42,43.93,250.8,43.76,251.19,43.57Zm6.61,4Z"/><path class="cls-2" d="M0,45.41V3.52H2.07V29.89L27.8,3.52h2.55L12.63,21.87,31.17,45.41H28.75L11.2,23.09,2.08,32.43v13Z"/><path class="cls-2" d="M49.61,45.41V3.52H66.92a10.3,10.3,0,0,1,4.8,1.13A12.45,12.45,0,0,1,75.57,7.6a12.67,12.67,0,0,1,2.49,4.06A13,13,0,0,1,79,16.31a13.7,13.7,0,0,1-.77,4.62,12.65,12.65,0,0,1-2.08,3.9,12.1,12.1,0,0,1-3.26,2.83A10.63,10.63,0,0,1,68.63,29L79.18,45.42H76.81L66.38,29.23H51.68V45.42Zm2.07-18.07H67.27a8.31,8.31,0,0,0,4-.95,9.63,9.63,0,0,0,3.08-2.45,11.38,11.38,0,0,0,1.9-3.55,12.08,12.08,0,0,0,.71-4.08,10.26,10.26,0,0,0-.83-4A10.89,10.89,0,0,0,74,8.77a10.42,10.42,0,0,0-3.21-2.42,8.32,8.32,0,0,0-3.91-.94H51.67Z"/><path class="cls-2" d="M96.73,3.52l15.48,23.76L127.85,3.52h2.25L113.27,29.35V45.41H111.2V29.23L94.42,3.52Z"/><path class="cls-2" d="M147.83,45.41V3.52h17.25a10.28,10.28,0,0,1,4.8,1.13,13.38,13.38,0,0,1,6.28,7,12.16,12.16,0,0,1,1,4.65,14.51,14.51,0,0,1-3.26,9,12.91,12.91,0,0,1-3.68,2.89,10.78,10.78,0,0,1-4.74,1H149.9V45.41Zm2.07-18.07h15.47a8.42,8.42,0,0,0,4-.95,9.82,9.82,0,0,0,3-2.45,11.92,11.92,0,0,0,1.9-3.55,12.08,12.08,0,0,0,.71-4.08,10.26,10.26,0,0,0-.83-4,10.78,10.78,0,0,0-2.13-3.49,10.5,10.5,0,0,0-3.2-2.42A8.13,8.13,0,0,0,165,5.41H149.9Z"/><path class="cls-2" d="M224.38,5.41H208.62v40h-2.07v-40H190.78V3.52h33.61Z"/><path class="cls-2" d="M302.49,7.45V45.54h-2.07v-42H302l30.9,38.79V3.52h2.07v42h-2Z"/><path class="cls-2" d="M375.45,43.91a15.25,15.25,0,0,0,7.46-1.67,13.56,13.56,0,0,0,4.73-4.43,18.76,18.76,0,0,0,2.43-6.16,35.47,35.47,0,0,0,.71-7V3.52h2V24.61a35.7,35.7,0,0,1-.89,8,19,19,0,0,1-3,6.79,14.83,14.83,0,0,1-5.33,4.68,17,17,0,0,1-8.11,1.73A17.29,17.29,0,0,1,367.15,44a15.26,15.26,0,0,1-5.32-4.78,20.49,20.49,0,0,1-2.9-6.82,35.89,35.89,0,0,1-.83-7.8V3.52h2.07V24.61a36.68,36.68,0,0,0,.71,7.16,17.39,17.39,0,0,0,2.49,6.13A13.49,13.49,0,0,0,368,42.24,15.14,15.14,0,0,0,375.45,43.91Z"/><path class="cls-2" d="M454.71,45.54v-38L437.07,37.37h-1.42L418,7.54v38h-2.07v-42h1.89l18.53,31.3,18.53-31.3h1.9v42Z"/></g></g></svg>